# xmcd
#
# Track frame offsets:
#	300
#	21440
#	45010
#	67800
#	83385
#	103935
#	117957
#	136905
#	150057
#	161492
#	181642
#	195235
#	219437
#	241817
#	258572
#	276207
#	297350
#	321015
#
# Disc length: 4576 seconds
#
# Revision: 0
# Processed by: cddbd v1.4PL0 Copyright (c) Steve Scherf et al.
# Submitted via: audiograbber 1.82.02
#
DISCID=e111dc12
DTITLE=Various Artist - Country Rock
DYEAR=1900
DGENRE=Country Rock
TTITLE0=I Couldnt  Stand  The Weather31b.
TTITLE1=While My Guitar Gently Weeps33.6b
TTITLE2=Truckin.31b
TTITLE3=Keep YOur Hands To Yourself.30b.
TTITLE4=You Talk Too Much.44b.
TTITLE5=Tumbling Dice.27.9b.
TTITLE6=Say You Love Me.32b.
TTITLE7=Willin.36.5b.
TTITLE8=Mammas Dont Let Your Babies.Vw.63b
TTITLE9=A Thousand Miles From Nowhere.39b.
TTITLE10=Where The Blacktop Ends.52.4b.
TTITLE11=Carry On Wayward Son.43b.
TTITLE12=She.36b.
TTITLE13=Youre Only Lonely.36b.
TTITLE14=Harley and Rose.68b.
TTITLE15=Daddys Gonna Make You a Star.40.5b
TTITLE16=The Night Owls.42b.Jive.
TTITLE17=The Journey.39b.
EXTD=
EXTT0=
EXTT1=
EXTT2=
EXTT3=
EXTT4=
EXTT5=
EXTT6=
EXTT7=
EXTT8=
EXTT9=
EXTT10=
EXTT11=
EXTT12=
EXTT13=
EXTT14=
EXTT15=
EXTT16=
EXTT17=
PLAYORDER=
